<svg version="1.1" id="Layer_1" xmlns="http://www.w3.org/2000/svg" xmlns:xlink="http://www.w3.org/1999/xlink" x="0px" y="0px"
	 width="100%" viewBox="0 0 300 240" enable-background="new 0 0 300 240" xml:space="preserve">
<path fill="#000000" opacity="1.000000" stroke="none" 
	d="
M217.000000,241.000000 
	C144.666672,241.000000 72.833351,241.000000 1.000019,241.000000 
	C1.000013,161.000015 1.000013,81.000038 1.000006,1.000041 
	C100.999969,1.000027 200.999939,1.000027 300.999939,1.000014 
	C300.999939,80.999962 300.999939,160.999924 300.999969,240.999939 
	C273.166656,241.000000 245.333328,241.000000 217.000000,241.000000 
M171.047272,34.353786 
	C164.234711,29.822432 156.764801,28.773592 148.628052,28.622885 
	C139.124680,28.446869 131.437836,32.411480 125.110168,38.087223 
	C112.925591,49.016441 105.102776,62.961800 102.458572,79.315414 
	C99.753990,96.042473 100.024635,112.353271 108.743111,127.833130 
	C120.296295,148.346100 144.756241,154.591080 165.032928,149.370132 
	C184.442047,144.372528 194.741776,130.370834 199.955063,111.942917 
	C203.444366,99.608910 202.421509,87.243546 199.055984,75.115097 
	C194.488983,58.656902 186.497116,44.346630 171.047272,34.353786 
z"/>
<path fill="#191D68" opacity="1.000000" stroke="none" 
	d="
M171.355530,34.563828 
	C186.497116,44.346630 194.488983,58.656902 199.055984,75.115097 
	C202.421509,87.243546 203.444366,99.608910 199.955063,111.942917 
	C194.741776,130.370834 184.442047,144.372528 165.032928,149.370132 
	C144.756241,154.591080 120.296295,148.346100 108.743111,127.833130 
	C100.024635,112.353271 99.753990,96.042473 102.458572,79.315414 
	C105.102776,62.961800 112.925591,49.016441 125.110168,38.087223 
	C131.437836,32.411480 139.124680,28.446869 148.628052,28.622885 
	C156.764801,28.773592 164.234711,29.822432 171.355530,34.563828 
M175.012009,140.050262 
	C175.012009,140.050262 175.067444,140.127289 175.729645,140.168564 
	C176.515778,139.473160 177.301910,138.777756 178.001556,138.017685 
	C178.001556,138.017685 178.071304,138.100418 178.759995,138.050888 
	C189.097717,129.827911 194.769806,119.147537 196.683014,106.053230 
	C198.144638,96.049568 194.778656,87.335915 186.001831,81.989708 
	C186.001831,81.989708 186.095413,81.891968 185.903824,81.218330 
	C184.205399,80.514282 182.506958,79.810226 180.260101,78.689079 
	C179.433350,78.496964 178.606583,78.304848 178.291550,78.231644 
	C178.291550,83.445564 178.315430,88.393257 178.286652,93.340645 
	C178.224319,104.056252 173.537064,109.148193 162.823517,108.610672 
	C155.418640,108.239143 149.351135,110.154007 143.618637,114.638741 
	C141.171661,116.553085 137.930054,117.451721 134.930359,117.950035 
	C134.870667,116.134529 134.600708,114.296165 134.795166,112.508301 
	C135.196609,108.817352 133.415741,107.764893 129.332962,107.985130 
	C125.252388,106.633392 121.171806,105.281647 116.926506,103.405212 
	C116.623634,103.243172 116.320755,103.081123 116.013229,102.984695 
	C116.013229,102.984695 116.068146,102.948494 115.831314,102.352119 
	C114.906273,101.868019 113.981224,101.383911 113.015625,100.985596 
	C113.015625,100.985596 113.083755,100.919533 112.912018,100.267059 
	C110.102722,97.316002 107.293434,94.364944 104.232895,91.149963 
	C104.232895,92.550140 104.232895,93.648537 104.100784,95.647263 
	C104.737030,100.731781 104.899757,105.929794 106.086700,110.882332 
	C113.563965,142.081528 146.453827,156.813278 173.480835,140.988373 
	C174.019440,140.689987 174.558044,140.391602 175.012009,140.050262 
M171.893295,39.218105 
	C169.581009,38.181492 167.268738,37.144878 164.305420,35.703213 
	C157.856323,34.676323 151.213638,32.207092 145.014084,33.039246 
	C139.134872,33.828396 133.037476,37.205078 128.231827,40.970158 
	C115.082062,51.272560 108.579010,65.727577 105.379463,81.806824 
	C105.170502,82.856949 105.352165,84.162987 105.806427,85.138412 
	C109.121040,92.255768 113.827293,98.066826 121.767967,101.580238 
	C122.782166,102.031021 123.796356,102.481804 124.727486,102.895660 
	C123.989571,92.154572 120.820374,81.347824 129.915024,72.062950 
	C138.821213,71.669167 147.745773,71.513046 156.629333,70.826439 
	C170.290863,69.770531 182.638657,72.534805 193.000229,82.002136 
	C193.000229,82.002136 192.948563,82.003944 192.998123,82.586533 
	C193.281815,82.845055 193.565506,83.103577 194.079620,83.927872 
	C194.658798,84.636780 195.237961,85.345688 195.817139,86.054604 
	C196.204605,85.845261 196.592056,85.635925 196.979523,85.426582 
	C195.256088,70.460396 189.667618,57.142548 178.867065,45.316063 
	C176.616608,43.503479 174.366150,41.690895 172.052841,39.995186 
	C172.052841,39.995186 172.099670,39.874371 171.893295,39.218105 
M151.494156,105.295784 
	C156.141449,105.214600 160.791275,105.202942 165.435379,105.034157 
	C170.913376,104.835052 174.457672,101.528908 174.803360,96.048294 
	C175.053986,92.074387 174.996277,88.068314 174.848740,84.085007 
	C174.627335,78.108170 171.148468,74.409683 165.154602,74.273674 
	C155.685043,74.058792 146.202805,74.049377 136.734039,74.282669 
	C130.765076,74.429733 127.350723,78.172394 127.145653,84.188690 
	C127.015488,88.007164 127.002342,91.839294 127.164452,95.655632 
	C127.371147,100.521729 129.791794,104.010216 134.687958,104.835243 
	C137.561981,105.319511 138.296097,106.580971 138.091843,109.125908 
	C137.980576,110.512398 138.071991,111.915161 138.071991,114.087463 
	C142.822601,110.980003 146.817978,108.366539 151.494156,105.295784 
z"/>
<path fill="#FCA2AE" opacity="1.000000" stroke="none" 
	d="
M135.049545,118.811897 
	C137.930054,117.451721 141.171661,116.553085 143.618637,114.638741 
	C149.351135,110.154007 155.418640,108.239143 162.823517,108.610672 
	C173.537064,109.148193 178.224319,104.056252 178.286652,93.340645 
	C178.315430,88.393257 178.291550,83.445564 178.291550,78.231644 
	C178.606583,78.304848 179.433350,78.496964 180.744263,79.182907 
	C182.850739,80.415154 184.473083,81.153564 186.095413,81.891968 
	C186.095413,81.891968 186.001831,81.989708 185.980576,82.294083 
	C187.372910,84.618652 189.144882,86.480461 190.122757,88.693222 
	C191.954407,92.837814 194.873383,97.288475 194.598267,101.429680 
	C193.780212,113.743805 189.433426,124.984383 180.535812,134.069122 
	C179.461884,135.165649 178.880814,136.744904 178.071304,138.100418 
	C178.071304,138.100418 178.001556,138.017685 177.691681,137.964569 
	C176.610352,138.650055 175.838898,139.388672 175.067444,140.127289 
	C175.067444,140.127289 175.012009,140.050262 174.733200,140.019501 
	C173.894516,140.296112 173.334625,140.603500 172.774750,140.910889 
	C146.453827,156.813278 113.563965,142.081528 106.086700,110.882332 
	C104.899757,105.929794 104.737030,100.731781 104.425690,95.420227 
	C107.528313,97.101974 110.306038,99.010757 113.083755,100.919533 
	C113.083755,100.919533 113.015625,100.985596 113.051483,101.300125 
	C114.080948,102.059273 115.074547,102.503883 116.068146,102.948494 
	C116.068146,102.948494 116.013229,102.984695 116.089554,103.210014 
	C116.474335,103.600189 116.782784,103.765045 117.091232,103.929901 
	C121.171806,105.281647 125.252388,106.633392 130.000549,108.342972 
	C131.092529,110.846466 131.244339,113.099632 132.033859,115.101265 
	C132.591385,116.514732 134.013443,117.587196 135.049545,118.811897 
z"/>
<path fill="#6DCBD3" opacity="1.000000" stroke="none" 
	d="
M121.380180,101.064003 
	C113.827293,98.066826 109.121040,92.255768 105.806427,85.138412 
	C105.352165,84.162987 105.170502,82.856949 105.379463,81.806824 
	C108.579010,65.727577 115.082062,51.272560 128.231827,40.970158 
	C133.037476,37.205078 139.134872,33.828396 145.014084,33.039246 
	C151.213638,32.207092 157.856323,34.676323 164.817474,36.191658 
	C167.586258,37.744858 169.842957,38.809612 172.099670,39.874367 
	C172.099670,39.874371 172.052841,39.995186 171.991196,40.281456 
	C173.914566,42.746468 175.899582,44.925209 178.056107,47.394306 
	C180.034439,50.241543 182.050171,52.677799 183.609131,55.377781 
	C188.393951,63.664597 192.889450,72.092415 192.973007,82.046104 
	C182.638657,72.534805 170.290863,69.770531 156.629333,70.826439 
	C147.745773,71.513046 138.821213,71.669167 129.141800,72.074181 
	C123.965546,74.097626 121.150566,77.466408 121.026001,82.321693 
	C120.865898,88.561996 121.237587,94.815933 121.380180,101.064003 
z"/>
<path fill="#D7E0FB" opacity="1.000000" stroke="none" 
	d="
M151.153763,105.524429 
	C146.817978,108.366539 142.822601,110.980003 138.071991,114.087463 
	C138.071991,111.915161 137.980576,110.512398 138.091843,109.125908 
	C138.296097,106.580971 137.561981,105.319511 134.687958,104.835243 
	C129.791794,104.010216 127.371147,100.521729 127.164452,95.655632 
	C127.002342,91.839294 127.015488,88.007164 127.145653,84.188690 
	C127.350723,78.172394 130.765076,74.429733 136.734039,74.282669 
	C146.202805,74.049377 155.685043,74.058792 165.154602,74.273674 
	C171.148468,74.409683 174.627335,78.108170 174.848740,84.085007 
	C174.996277,88.068314 175.053986,92.074387 174.803360,96.048294 
	C174.457672,101.528908 170.913376,104.835052 165.435379,105.034157 
	C160.791275,105.202942 156.141449,105.214600 151.153763,105.524429 
z"/>
<path fill="#D2D6F0" opacity="1.000000" stroke="none" 
	d="
M178.415649,138.075653 
	C178.880814,136.744904 179.461884,135.165649 180.535812,134.069122 
	C189.433426,124.984383 193.780212,113.743805 194.598267,101.429680 
	C194.873383,97.288475 191.954407,92.837814 190.122757,88.693222 
	C189.144882,86.480461 187.372910,84.618652 186.027679,82.242874 
	C194.778656,87.335915 198.144638,96.049568 196.683014,106.053230 
	C194.769806,119.147537 189.097717,129.827911 178.415649,138.075653 
z"/>
<path fill="#CDDBF5" opacity="1.000000" stroke="none" 
	d="
M192.986618,82.024124 
	C192.889450,72.092415 188.393951,63.664597 183.609131,55.377781 
	C182.050171,52.677799 180.034439,50.241543 178.240387,47.172585 
	C178.548889,46.417316 178.844620,46.174133 179.140350,45.930954 
	C189.667618,57.142548 195.256088,70.460396 196.979523,85.426582 
	C196.592056,85.635925 196.204605,85.845261 195.817139,86.054604 
	C195.237961,85.345688 194.658798,84.636780 193.930878,83.349197 
	C193.504288,82.514999 193.226425,82.259468 192.948563,82.003937 
	C192.948563,82.003944 193.000229,82.002136 192.986618,82.024124 
z"/>
<path fill="#C7D2EF" opacity="1.000000" stroke="none" 
	d="
M121.574074,101.322121 
	C121.237587,94.815933 120.865898,88.561996 121.026001,82.321693 
	C121.150566,77.466408 123.965546,74.097626 128.719421,72.086395 
	C120.820374,81.347824 123.989571,92.154572 124.727486,102.895660 
	C123.796356,102.481804 122.782166,102.031021 121.574074,101.322121 
z"/>
<path fill="#C0C6E7" opacity="1.000000" stroke="none" 
	d="
M134.989960,118.380966 
	C134.013443,117.587196 132.591385,116.514732 132.033859,115.101265 
	C131.244339,113.099632 131.092529,110.846466 130.400452,108.453552 
	C133.415741,107.764893 135.196609,108.817352 134.795166,112.508301 
	C134.600708,114.296165 134.870667,116.134529 134.989960,118.380966 
z"/>
<path fill="#D1D1ED" opacity="1.000000" stroke="none" 
	d="
M112.997887,100.593292 
	C110.306038,99.010757 107.528313,97.101974 104.491745,94.970062 
	C104.232895,93.648537 104.232895,92.550140 104.232895,91.149963 
	C107.293434,94.364944 110.102722,97.316002 112.997887,100.593292 
z"/>
<path fill="#C1D3EE" opacity="1.000000" stroke="none" 
	d="
M179.003708,45.623508 
	C178.844620,46.174133 178.548889,46.417316 178.068878,46.882225 
	C175.899582,44.925209 173.914566,42.746468 172.022614,40.223019 
	C174.366150,41.690895 176.616608,43.503479 179.003708,45.623508 
z"/>
<path fill="#C1D3EE" opacity="1.000000" stroke="none" 
	d="
M171.996490,39.546234 
	C169.842957,38.809612 167.586258,37.744858 165.143005,36.394188 
	C167.268738,37.144878 169.581009,38.181492 171.996490,39.546234 
z"/>
<path fill="#D2D6F0" opacity="1.000000" stroke="none" 
	d="
M185.999619,81.555153 
	C184.473083,81.153564 182.850739,80.415154 181.018463,79.391464 
	C182.506958,79.810226 184.205399,80.514282 185.999619,81.555153 
z"/>
<path fill="#D1D1ED" opacity="1.000000" stroke="none" 
	d="
M115.949730,102.650307 
	C115.074547,102.503883 114.080948,102.059273 113.071762,101.257233 
	C113.981224,101.383911 114.906273,101.868019 115.949730,102.650307 
z"/>
<path fill="#D2D6F0" opacity="1.000000" stroke="none" 
	d="
M175.398544,140.147919 
	C175.838898,139.388672 176.610352,138.650055 177.734924,137.996887 
	C177.301910,138.777756 176.515778,139.473160 175.398544,140.147919 
z"/>
<path fill="#D2D6F0" opacity="1.000000" stroke="none" 
	d="
M173.127792,140.949631 
	C173.334625,140.603500 173.894516,140.296112 174.775513,140.040985 
	C174.558044,140.391602 174.019440,140.689987 173.127792,140.949631 
z"/>
<path fill="#6DCBD3" opacity="1.000000" stroke="none" 
	d="
M192.973343,82.295235 
	C193.226425,82.259468 193.504288,82.514999 193.815674,83.066307 
	C193.565506,83.103577 193.281815,82.845055 192.973343,82.295235 
z"/>
<path fill="#D1D1ED" opacity="1.000000" stroke="none" 
	d="
M117.008865,103.667557 
	C116.782784,103.765045 116.474335,103.600189 116.091888,103.177208 
	C116.320755,103.081123 116.623634,103.243172 117.008865,103.667557 
z"/>
</svg>